HIERARCHY
ROOT Hips
{
	OFFSET -3.958830 18.904000 13.208200
	CHANNELS 6 Xposition Yposition Zposition Zrotation Yrotation Xrotation 
	JOINT LHipJoint
	{
		OFFSET 0.000000 0.000000 0.000000
		CHANNELS 3 Zrotation Yrotation Xrotation
		JOINT LeftUpLeg
		{
			OFFSET 1.800000 -1.400000 0.085000
			CHANNELS 3 Zrotation Yrotation Xrotation
			JOINT LeftLeg
			{
				OFFSET 2.215000 -6.000000 0.000000
				CHANNELS 3 Zrotation Yrotation Xrotation
				JOINT LeftFoot
				{
					OFFSET 2.500000 -6.900000 0.000000
					CHANNELS 3 Zrotation Yrotation Xrotation
					JOINT LeftToeBase
					{
						OFFSET 0.200000 -0.500000 1.950000
						CHANNELS 3 Zrotation Yrotation Xrotation
						End Site
						{
							OFFSET 0.000000 0.000000 0.000000
						}
					}
				}
			}
		}
	}
	JOINT RHipJoint
	{
		OFFSET 0.000000 0.000000 0.000000
		CHANNELS 3 Zrotation Yrotation Xrotation
		JOINT RightUpLeg
		{
			OFFSET -1.800000 -1.400000 0.085000
			CHANNELS 3 Zrotation Yrotation Xrotation
			JOINT RightLeg
			{
				OFFSET -2.215000 -6.000000 0.000000
				CHANNELS 3 Zrotation Yrotation Xrotation
				JOINT RightFoot
				{
					OFFSET -2.500000 -6.900000 0.000000
					CHANNELS 3 Zrotation Yrotation Xrotation
					JOINT RightToeBase
					{
						OFFSET -0.200000 -0.500000 1.950000
						CHANNELS 3 Zrotation Yrotation Xrotation
						End Site
						{
							OFFSET 0.000000 0.000000 0.000000
						}
					}
				}
			}
		}
	}
	JOINT LowerBack
	{
		OFFSET 0.000000 0.000000 0.000000
		CHANNELS 3 Zrotation Yrotation Xrotation
		JOINT Spine
		{
			OFFSET -0.087000 1.940000 -0.288900
			CHANNELS 3 Zrotation Yrotation Xrotation
			JOINT Spine1
			{
				OFFSET 0.000000 1.950000 0.060000
				CHANNELS 3 Zrotation Yrotation Xrotation
				JOINT Neck
				{
					OFFSET 0.000000 0.000000 0.000000
					CHANNELS 3 Zrotation Yrotation Xrotation
					JOINT Neck1
					{
						OFFSET 0.000000 1.600000 0.340000
						CHANNELS 3 Zrotation Yrotation Xrotation
						JOINT Head
						{
							OFFSET 0.000000 1.667000 -0.240000
							CHANNELS 3 Zrotation Yrotation Xrotation
							End Site
							{
								OFFSET 0.000000 0.000000 0.000000
							}
						}
					}
				}
				JOINT LeftShoulder
				{
					OFFSET 0.000000 0.000000 0.000000
					CHANNELS 3 Zrotation Yrotation Xrotation
					JOINT LeftArm
					{
						OFFSET 2.700000 1.550000 -0.730000
						CHANNELS 3 Zrotation Yrotation Xrotation
						JOINT LeftForeArm
						{
							OFFSET 5.450000 0.000000 0.000000
							CHANNELS 3 Zrotation Yrotation Xrotation
							JOINT LeftHand
							{
								OFFSET 3.450000 0.000000 0.000000
								CHANNELS 3 Zrotation Yrotation Xrotation
								JOINT LeftHandIndex1
								{
									OFFSET 0.750000 0.000000 0.000000
									CHANNELS 3 Zrotation Yrotation Xrotation
									End Site
									{
										OFFSET 0.000000 0.000000 0.000000
									}
								}
							}
						}
					}
				}
				JOINT RightShoulder
				{
					OFFSET 0.000000 0.000000 0.000000
					CHANNELS 3 Zrotation Yrotation Xrotation
					JOINT RightArm
					{
						OFFSET -2.700000 1.550000 -0.730000
						CHANNELS 3 Zrotation Yrotation Xrotation
						JOINT RightForeArm
						{
							OFFSET -5.450000 0.000000 0.000000
							CHANNELS 3 Zrotation Yrotation Xrotation
							JOINT RightHand
							{
								OFFSET -3.450000 0.000000 0.000000
								CHANNELS 3 Zrotation Yrotation Xrotation
								JOINT RightHandIndex1
								{
									OFFSET -0.750000 0.000000 0.000000
									CHANNELS 3 Zrotation Yrotation Xrotation
									End Site
									{
										OFFSET 0.000000 0.000000 0.000000
									}
								}
							}
						}
					}
				}
			}
		}
	}
}
MOTION
Frames: 10
Frame Time: 0.016667
0.055540 16.927960 -5.012960 -9.808986 19.845741 -1.614667 -15.422701 9.858004 6.120404 14.780016 -7.703731 -46.561618 -36.589055 20.782109 34.337891 0.762722 11.596209 0.858907 -0.030790 -0.529160 -0.187820 18.548920 -9.070496 2.983208 7.185338 5.678292 -9.949764 25.214035 -17.512765 36.636092 -1.544597 -8.318314 1.600844 -0.229560 0.953940 0.569990 -3.667079 -0.299187 -9.500910 10.666010 1.521906 26.916470 -6.666956 6.906597 3.183952 3.953396 0.512792 -7.760089 -0.126955 -7.482985 31.233850 3.375830 -9.123380 -11.630850 -20.530116 2.423077 1.190271 -43.778865 2.919266 -5.735624 148.514650 -66.902356 -146.071231 -4.039678 3.291538 0.796190 0.351100 -0.099090 0.343700 11.662580 0.386375 5.471165 32.154114 -10.010041 -15.641778 149.432586 75.706785 132.406386 1.548947 -1.052873 -0.454560 0.524590 0.440190 -0.012970 
0.070880 16.741500 -5.006180 -9.416470 21.225033 -1.894698 -15.427023 9.882705 6.080530 13.654144 -8.344467 -45.850557 -38.819788 20.369385 32.361909 0.790552 11.422043 0.958814 -0.038590 -0.519090 -0.228700 18.537068 -9.038659 2.998463 7.328430 5.455354 -9.377974 26.163465 -18.319118 37.168143 -1.599630 -8.583009 1.552426 -0.213420 1.002590 0.545990 -3.643471 -0.416633 -9.485692 10.151173 0.937182 27.826471 -6.764186 6.218381 2.720670 3.869666 0.039695 -7.547942 -0.678242 -7.176536 30.008633 3.904840 -9.618080 -11.406860 -19.915880 4.229490 0.604250 -42.753268 4.036415 -5.118853 155.240404 -62.130831 -152.469897 -4.011911 3.334617 0.764900 0.373410 -0.132690 0.372920 11.195296 -1.150217 5.581925 30.027871 -9.601940 -12.055262 165.092674 68.825428 146.344788 1.617077 -1.528882 -0.471190 0.559690 0.435000 0.014320 
0.089240 16.607740 -5.004760 -9.048337 21.963640 -2.406835 -15.410028 9.962690 5.982958 12.591840 -8.639470 -44.624664 -39.320496 19.926056 31.394641 0.804677 11.240989 1.034028 -0.068820 -0.545950 -0.251950 18.526620 -9.104142 3.023286 7.183583 5.274664 -8.648938 26.438468 -18.784258 37.669011 -1.633975 -8.752229 1.513360 -0.237620 1.016490 0.546070 -3.671029 -0.403616 -9.464896 9.950825 0.548988 28.843074 -7.312313 5.759204 2.194189 3.941523 0.068028 -7.762645 -0.515140 -6.901408 29.905699 3.879320 -9.661610 -10.860660 -19.424213 4.819323 0.562280 -41.731132 5.603369 -5.147031 157.593272 -57.972431 -153.902432 -4.017511 3.347836 0.746510 0.383750 -0.141170 0.369410 10.534515 -1.672991 5.943098 29.829640 -9.076521 -10.299893 169.766243 64.096981 149.743965 1.674738 -1.637456 -0.466020 0.554540 0.443180 0.026470 
0.103030 16.536850 -5.001650 -8.732025 22.424788 -2.725952 -15.403546 10.025363 5.896506 11.893474 -8.765121 -43.721924 -39.244348 19.646560 30.896078 0.806936 11.129123 1.081069 -0.103900 -0.581210 -0.296680 18.514929 -9.138811 3.043354 6.793082 5.359885 -8.651690 26.607661 -19.326733 38.642199 -1.672696 -8.966765 1.456736 -0.262890 1.052870 0.563360 -3.673177 -0.416495 -9.439615 9.423768 0.545708 29.183204 -7.155316 5.574042 2.266130 3.698632 0.194188 -7.892605 -0.318782 -6.732488 30.078132 4.606200 -10.075530 -10.331880 -19.098906 4.810266 0.741477 -41.388346 6.145127 -5.068589 160.452428 -56.003207 -157.940321 -4.037536 3.364029 0.729710 0.404920 -0.153770 0.371050 10.735137 -1.740879 6.023400 30.136821 -8.527133 -9.584187 173.827543 61.460518 154.502544 1.693050 -1.682097 -0.459240 0.554440 0.469150 0.046750 
0.108460 16.546930 -5.020720 -8.584468 22.470608 -3.512047 -15.409524 10.165334 5.788681 11.603690 -8.456974 -42.545098 -38.318316 19.347743 30.713643 0.771473 10.993860 1.116866 -0.182410 -0.663320 -0.332280 18.477043 -9.175111 3.086910 6.318144 5.637453 -8.678562 26.626087 -19.616280 39.389859 -1.686433 -9.081766 1.438745 -0.321810 1.061290 0.559240 -3.623535 -0.491379 -9.425876 8.995233 0.745175 30.739207 -6.977278 5.906268 1.610018 3.645887 0.597107 -8.371613 0.306594 -6.871828 30.638904 4.460360 -9.842480 -10.356700 -19.187361 4.117426 1.023456 -41.717531 6.189457 -5.397535 161.070186 -56.084694 -159.317018 -4.065182 3.304429 0.747600 0.413360 -0.152020 0.336460 10.880027 -0.998078 6.556520 32.648306 -8.189827 -10.430657 -179.931181 61.219733 164.145425 1.698489 -1.639588 -0.475550 0.560340 0.512970 0.036900 
0.120300 16.624940 -5.039980 -8.497325 22.769618 -4.440168 -15.401781 10.327889 5.666744 11.277584 -8.156557 -41.319446 -36.630298 19.051328 31.096112 0.780207 10.814996 1.165011 -0.231610 -0.718680 -0.338720 18.441562 -9.261760 3.125214 5.447439 5.767448 -8.539349 26.846488 -19.826315 39.633563 -1.706492 -9.126028 1.430345 -0.394460 1.031160 0.568110 -3.615863 -0.513896 -9.415926 8.835640 0.804253 32.186996 -6.871422 6.145653 0.893447 3.526664 0.998734 -9.089124 0.897855 -6.623606 32.143758 4.927530 -9.561530 -10.174750 -19.453690 2.864106 1.774223 -43.225239 6.649781 -6.674785 160.909052 -58.944768 -161.003218 -4.038235 3.285938 0.763280 0.390230 -0.119010 0.310610 11.331472 0.376054 7.093330 35.837239 -7.353140 -11.808904 -173.451809 62.475033 174.431872 1.737023 -1.602005 -0.449570 0.524140 0.518160 0.037640 
0.145990 16.744710 -5.055950 -8.394149 23.324438 -4.718731 -15.392773 10.448460 5.588230 10.777998 -8.165666 -40.815791 -34.571140 18.746998 31.966801 0.759277 10.656517 1.189071 -0.280890 -0.781260 -0.349330 18.411355 -9.366565 3.133881 4.132273 5.830403 -8.863721 26.955328 -19.920842 39.614975 -1.687333 -9.109152 1.429062 -0.458270 0.998420 0.570140 -3.624329 -0.482867 -9.406376 8.875554 0.924475 32.504740 -6.483158 6.317597 0.286024 3.272877 1.317124 -9.753636 1.404268 -6.527011 33.673663 5.611630 -9.620050 -9.725500 -19.267610 1.757725 2.522721 -45.666100 6.517794 -7.779428 158.415826 -63.680286 -159.360068 -4.016168 3.274984 0.776320 0.367870 -0.104760 0.271370 11.605244 1.646141 7.489354 39.264863 -6.147577 -13.175866 -167.079182 65.703280 -175.937243 1.766345 -1.563031 -0.431050 0.483850 0.540550 0.028130 
0.170190 16.912610 -5.061970 -7.981247 23.733018 -5.030161 -15.407301 10.670021 5.470339 10.202456 -7.948289 -39.749135 -32.058664 18.354804 32.913659 0.700514 10.427884 1.217702 -0.280210 -0.798900 -0.294070 18.336553 -9.537969 3.109192 2.487724 5.664219 -8.559426 26.180405 -19.450664 39.244421 -1.654909 -8.930848 1.469274 -0.501790 0.907170 0.571560 -3.539847 -0.491645 -9.359203 8.131981 1.676131 32.478501 -5.648249 6.968105 0.083865 3.196708 2.164930 -10.854960 2.814897 -7.139807 36.475440 5.356930 -9.305160 -9.902070 -19.206559 -0.322037 3.502947 -48.747681 6.039372 -9.119432 151.974903 -69.452665 -153.455920 -3.968940 3.236237 0.832900 0.314160 -0.046720 0.232520 11.698882 3.746600 8.349761 43.525352 -5.047215 -14.629720 -153.489816 69.895648 -158.713151 1.852024 -1.508097 -0.408100 0.436030 0.525930 -0.010260 
0.203110 17.090720 -5.072150 -7.943200 24.120856 -4.708878 -15.374681 10.773529 5.385432 9.977855 -7.668449 -39.549380 -29.000295 17.954585 34.377378 0.650527 10.226815 1.257538 -0.271240 -0.782840 -0.258170 18.321260 -9.757597 3.090167 1.125180 5.687829 -9.080834 24.781437 -18.743272 39.251053 -1.600251 -8.716110 1.536773 -0.519860 0.850880 0.549710 -3.625618 -0.231702 -9.340069 8.692111 2.101129 31.002573 -5.524059 7.342169 0.308480 3.000656 2.660016 -11.862521 3.781243 -7.720694 39.338437 5.129580 -9.468110 -9.189990 -19.238094 -2.449435 4.408684 -51.006589 5.368712 -9.539646 136.501878 -75.949554 -138.783444 -4.006812 3.097558 0.852360 0.276950 -0.005200 0.221680 12.117113 5.816227 9.180204 47.351094 -3.191748 -12.680535 -125.036426 71.420778 -124.767029 2.244613 -0.718491 -0.387610 0.429790 0.498060 -0.019800 
0.231690 17.255950 -5.065890 -7.639134 23.736493 -3.340254 -15.356596 10.783251 5.366937 10.141360 -7.324943 -40.249091 -26.051574 17.683352 35.917638 0.590713 10.120592 1.268531 -0.263000 -0.757760 -0.271400 18.307786 -9.973899 3.043532 -0.633904 5.867181 -10.495508 22.888451 -17.946218 39.755449 -1.513665 -8.553836 1.579982 -0.510990 0.851080 0.545790 -3.662185 0.127639 -9.346288 8.109162 3.158260 28.461126 -4.419919 7.733457 -1.216757 2.766342 3.079788 -11.215340 4.788517 -7.882344 41.090837 4.996760 -9.618290 -7.648940 -18.486765 -2.529275 4.151906 -53.543873 4.470774 -13.519212 82.057673 -85.559130 -78.608152 -3.810995 -1.109720 0.833800 0.284130 -0.003850 0.231850 12.084385 6.055032 7.483085 50.044742 -1.548502 -21.945048 -83.524771 81.585597 -68.894550 0.774214 4.098646 -0.372050 0.428020 0.490800 -0.006750 
